<svg width="397" height="200" viewBox="0 0 397 200" fill="none" xmlns="http://www.w3.org/2000/svg">
<path d="M190.383 128.781L134.91 185.501L176.187 73.6813C200.118 80.8807 207.856 110.915 190.383 128.781Z" fill="black"/>
<path d="M109.229 77.5869C111.415 75.4801 113.773 73.5152 116.237 71.7411C145.599 50.6003 186.088 76.467 178.339 111.808L170.689 146.693C165.497 170.375 144.191 187.013 119.957 186.31C75.289 185.016 54.2393 130.572 86.4184 99.5657L109.229 77.5869Z" fill="#0E4DB7"/>
<path d="M105.48 35.1309C105.48 15.7286 121.209 0 140.611 0C155.112 0 168.122 8.90869 173.365 22.4277L184.595 51.3822C197.571 84.8401 164.285 117.617 131.032 104.126C115.586 97.8601 105.48 82.8556 105.48 66.187V35.1309Z" fill="white"/>
<path d="M106.38 27.8825C106.685 15.2162 117.714 5.49384 130.319 6.78001C141.832 7.95491 150.991 16.959 152.362 28.4514L155.627 55.8271C156.84 65.9987 151.745 75.8859 142.758 80.8015C125.809 90.0718 105.184 77.5058 105.649 58.1931L106.38 27.8825Z" fill="#0E4DB7"/>
<circle cx="148.845" cy="26.3701" r="8.79006" fill="black"/>
<path d="M108.118 20.2173L80.8691 43.3644L106.067 55.6705C119.348 49.9789 122.102 32.3566 111.191 22.8846L108.118 20.2173Z" fill="#FFD241"/>
<path d="M65.9337 115.568L34.5742 172.871L135.367 113.684C119.14 87.5118 80.7175 88.5544 65.9337 115.568Z" fill="black"/>
<path d="M112.22 185.763L123.131 195.872H101.309L112.22 185.763Z" fill="black"/>
<path d="M132.73 185.763L143.641 195.872H121.819L132.73 185.763Z" fill="black"/>
<path d="M206.617 128.781L262.09 185.501L220.813 73.6813C196.882 80.8807 189.144 110.915 206.617 128.781Z" fill="black"/>
<path d="M287.771 77.5869C285.585 75.4801 283.227 73.5152 280.763 71.7411C251.401 50.6003 210.912 76.467 218.661 111.808L226.311 146.693C231.503 170.375 252.809 187.013 277.043 186.31C321.711 185.016 342.761 130.572 310.582 99.5657L287.771 77.5869Z" fill="#E85811"/>
<path d="M291.52 35.1309C291.52 15.7286 275.791 0 256.389 0C241.888 0 228.878 8.90869 223.635 22.4277L212.405 51.3822C199.429 84.8401 232.715 117.617 265.968 104.126C281.414 97.8601 291.52 82.8556 291.52 66.187V35.1309Z" fill="white"/>
<path d="M290.62 27.8825C290.315 15.2162 279.286 5.49384 266.681 6.78001C255.168 7.95491 246.009 16.959 244.638 28.4514L241.373 55.8271C240.16 65.9987 245.255 75.8859 254.242 80.8015C271.191 90.0718 291.816 77.5058 291.351 58.1931L290.62 27.8825Z" fill="#E85811"/>
<circle r="8.79006" transform="matrix(-1 0 0 1 248.155 26.3701)" fill="black"/>
<path d="M288.882 20.2173L316.131 43.3644L290.933 55.6705C277.652 49.9789 274.898 32.3566 285.809 22.8846L288.882 20.2173Z" fill="#FFD241"/>
<path d="M331.066 115.568L362.426 172.871L261.633 113.684C277.86 87.5118 316.282 88.5544 331.066 115.568Z" fill="black"/>
<path d="M284.78 185.763L273.869 195.872H295.691L284.78 185.763Z" fill="black"/>
<path d="M264.27 185.763L253.359 195.872H275.181L264.27 185.763Z" fill="black"/>
</svg>
